<?xml version="1.0" encoding="UTF-8"?>
<svg id="Layer_1" data-name="Layer 1" xmlns="http://www.w3.org/2000/svg" xmlns:xlink="http://www.w3.org/1999/xlink" viewBox="0 0 127.08 41.23">
  <defs>
    <style>
      .cls-1 {
        fill: url(#linear-gradient);
      }

      .cls-1, .cls-2, .cls-3 {
        stroke-width: 0px;
      }

      .cls-2 {
        fill: #fff;
      }

      .cls-3 {
        fill: #f2f2f2;
      }
    </style>
    <linearGradient id="linear-gradient" x1="99.77" y1=".28" x2="72.85" y2="14.64" gradientUnits="userSpaceOnUse">
      <stop offset="0" stop-color="#f16524"/>
      <stop offset="1" stop-color="#fad778"/>
    </linearGradient>
  </defs>
  <g>
    <g>
      <path class="cls-3" d="M20.64,39.9c-.26.23-.5.4-.73.5-.26.11-.54.17-.85.17-.36,0-.69-.08-.99-.24-.3-.16-.53-.39-.7-.67s-.24-.61-.24-.96c0-.52.19-.96.55-1.32.37-.36.82-.53,1.36-.53.59,0,1.12.23,1.6.67l.5-.46c-.26-.26-.56-.47-.89-.62-.38-.17-.78-.25-1.19-.25-.48,0-.93.11-1.35.34-.41.23-.74.53-.96.9s-.33.8-.33,1.28c0,.74.25,1.35.73,1.82.49.47,1.12.71,1.89.71.42,0,.8-.07,1.12-.2.3-.12.61-.34.95-.64l-.48-.48Z"/>
      <path class="cls-3" d="M28,36.92c-.51-.5-1.1-.74-1.81-.74-.46,0-.9.11-1.29.34-.4.22-.72.53-.95.91-.23.38-.34.81-.34,1.27,0,.69.24,1.27.74,1.78.5.5,1.1.74,1.85.74s1.31-.24,1.81-.73c.5-.49.74-1.07.74-1.78s-.25-1.3-.75-1.8ZM27.5,40.03c-.36.36-.8.54-1.3.54-.45,0-.85-.14-1.2-.41-.45-.35-.67-.83-.67-1.43,0-.54.18-.99.53-1.34.35-.35.8-.53,1.32-.53s.96.18,1.32.54c.36.36.54.8.54,1.32s-.18.96-.54,1.31Z"/>
      <polygon class="cls-3" points="34.67 39.96 34.42 39.58 32.3 36.31 31.49 36.31 31.49 41.1 32.2 41.1 32.2 37.46 32.46 37.84 34.57 41.1 35.39 41.1 35.39 36.31 34.67 36.31 34.67 39.96"/>
      <path class="cls-3" d="M40.93,39.93c0-.19-.04-.37-.11-.53-.08-.16-.21-.34-.4-.53-.08-.08-.31-.27-.68-.57-.43-.36-.66-.56-.75-.67-.08-.1-.12-.21-.12-.32,0-.09.03-.22.17-.33.11-.09.25-.13.41-.13.28,0,.55.15.81.46l.52-.44c-.23-.24-.44-.41-.63-.51-.21-.11-.44-.16-.68-.16-.37,0-.67.11-.93.34-.25.23-.37.49-.37.8,0,.21.08.44.22.66.16.23.52.57,1.07,1.01.31.25.51.43.6.55.11.14.16.28.16.43,0,.17-.08.31-.22.44-.14.12-.32.17-.52.17-.35,0-.66-.21-.92-.62l-.6.35c.17.3.37.52.6.67.25.16.55.24.89.24.44,0,.79-.12,1.06-.37.27-.25.4-.55.4-.93Z"/>
      <path class="cls-3" d="M46.17,39.33c0,.37-.03.6-.08.74-.06.15-.17.27-.32.36-.15.09-.33.14-.53.14s-.36-.04-.5-.13c-.14-.08-.25-.2-.31-.34-.06-.13-.09-.35-.09-.65v-3.13h-.72v2.88c0,.58.06.99.17,1.23.11.23.29.42.55.58.26.15.56.23.91.23.27,0,.51-.04.7-.12.2-.08.37-.21.53-.37.15-.17.26-.34.31-.52.06-.19.08-.53.08-1.02v-2.88h-.72v3.01Z"/>
      <polygon class="cls-3" points="50.56 36.31 49.84 36.31 49.84 41.1 52 41.1 52 40.45 50.56 40.45 50.56 36.31"/>
      <polygon class="cls-3" points="54.04 36.99 54.97 36.99 54.97 41.1 55.7 41.1 55.7 36.99 56.65 36.99 56.65 36.31 54.04 36.31 54.04 36.99"/>
      <path class="cls-3" d="M62.25,40.06l.41,1.04h.73l-1.9-4.79h-.81l-1.9,4.79h.73l.42-1.04h2.32ZM61.09,37.14l.9,2.24h-1.8l.91-2.24Z"/>
      <polygon class="cls-3" points="69.21 39.96 68.95 39.58 66.83 36.31 66.02 36.31 66.02 41.1 66.73 41.1 66.73 37.46 66.99 37.84 69.1 41.1 69.92 41.1 69.92 36.31 69.21 36.31 69.21 39.96"/>
      <path class="cls-3" d="M77.35,40.39l-.48-.48c-.26.23-.5.4-.73.5-.26.11-.54.17-.85.17-.36,0-.69-.08-.99-.24-.3-.16-.53-.39-.7-.67s-.24-.61-.24-.96c0-.52.19-.96.55-1.32.37-.36.82-.53,1.36-.53.59,0,1.12.23,1.6.67l.5-.46c-.26-.26-.56-.47-.89-.62-.38-.17-.78-.25-1.19-.25-.48,0-.93.11-1.35.34-.41.23-.74.53-.96.9s-.33.8-.33,1.28c0,.74.25,1.35.73,1.82.49.47,1.12.71,1.89.71.42,0,.8-.07,1.12-.2.3-.12.61-.34.95-.64Z"/>
      <polygon class="cls-3" points="82.68 36.31 81.62 38.29 80.56 36.31 79.81 36.31 81.26 39.05 81.26 41.1 81.98 41.1 81.99 38.98 83.41 36.31 82.68 36.31"/>
      <polygon class="cls-3" points="90.38 36.31 89.67 36.31 89.67 41.1 91.83 41.1 91.83 40.45 90.38 40.45 90.38 36.31"/>
      <path class="cls-3" d="M95.08,40.79c0-.11-.04-.2-.12-.28-.08-.08-.18-.12-.3-.12s-.21.04-.29.12c-.08.08-.12.17-.12.28s.04.21.12.28c.08.08.18.12.29.12s.21-.04.29-.12c.08-.08.12-.17.12-.29Z"/>
      <polygon class="cls-3" points="98.65 36.31 97.93 36.31 97.93 41.1 100.09 41.1 100.09 40.45 98.65 40.45 98.65 36.31"/>
      <path class="cls-3" d="M103.22,40.51c-.08-.08-.18-.12-.29-.12s-.21.04-.3.12c-.08.08-.12.17-.12.28s.04.21.12.28c.08.08.18.12.3.12s.21-.04.29-.12c.08-.08.12-.17.12-.29s-.04-.2-.12-.28Z"/>
      <path class="cls-3" d="M110.15,39.9c-.26.24-.5.4-.73.5-.26.11-.54.17-.85.17-.36,0-.69-.08-.99-.24-.3-.16-.53-.39-.69-.67-.16-.28-.25-.6-.25-.96,0-.52.19-.96.55-1.32.37-.36.82-.53,1.36-.53.59,0,1.12.23,1.6.67l.5-.46c-.26-.26-.56-.47-.89-.62-.38-.17-.78-.25-1.19-.25-.48,0-.93.12-1.35.34-.41.23-.74.53-.96.9-.22.37-.33.8-.33,1.28,0,.74.25,1.35.73,1.82.49.47,1.12.71,1.89.71.42,0,.8-.07,1.12-.2.3-.12.61-.34.95-.64l-.48-.48Z"/>
    </g>
    <g>
      <path class="cls-3" d="M5.99,31.52c.14-.21.21-.45.21-.7s-.06-.5-.2-.69c-.13-.19-.35-.36-.64-.49l-.21-.1.19-.14c.17-.12.29-.26.37-.39.07-.14.11-.29.11-.46,0-.27-.08-.49-.24-.68-.17-.2-.39-.33-.68-.4-.21-.06-.54-.08-1.01-.08h-.68v4.79h1.32c.4,0,.71-.05.93-.16.22-.1.39-.26.53-.47ZM3.92,28.01h.4c.26,0,.46.06.6.17.14.12.22.28.22.48,0,.21-.08.38-.22.5-.14.12-.35.18-.63.18h-.36v-1.34ZM5.23,31.33c-.17.12-.47.18-.92.18h-.39v-1.57h.35c.43,0,.73.07.93.22.2.15.31.36.31.62,0,.23-.09.42-.27.55Z"/>
      <path class="cls-3" d="M11.44,30.38c0,.36-.03.6-.08.74-.06.15-.17.27-.32.36-.15.09-.33.14-.53.14s-.36-.04-.5-.12c-.14-.08-.25-.2-.31-.34-.06-.13-.09-.35-.09-.65v-3.13h-.72v2.88c0,.58.06.99.17,1.23.11.23.29.42.55.57.26.16.56.23.91.23.27,0,.5-.04.7-.12.2-.08.37-.21.53-.37.15-.17.26-.34.31-.52.06-.19.08-.53.08-1.02v-2.88h-.72v3.01Z"/>
      <path class="cls-3" d="M17.26,30.98c0-.2-.04-.37-.11-.53-.08-.16-.21-.34-.4-.53-.08-.08-.31-.27-.68-.57-.56-.46-.69-.6-.75-.67-.08-.1-.12-.21-.12-.32,0-.09.03-.22.17-.33.11-.09.25-.13.41-.13.28,0,.55.15.81.46l.52-.44c-.23-.24-.44-.41-.63-.51-.21-.11-.44-.16-.68-.16-.37,0-.67.11-.93.34-.25.23-.37.49-.37.8,0,.21.08.44.22.66.16.23.52.57,1.07,1.01.31.24.51.42.6.55.11.14.16.28.16.43,0,.17-.08.31-.22.43-.14.12-.32.18-.52.18-.35,0-.65-.21-.92-.62l-.6.35c.17.3.37.52.6.67.25.16.55.24.89.24.44,0,.79-.12,1.06-.37.27-.25.4-.55.4-.93Z"/>
      <rect class="cls-3" x="19.93" y="27.37" width=".71" height="4.79"/>
      <polygon class="cls-3" points="26.74 31.02 26.48 30.63 24.37 27.37 23.56 27.37 23.56 32.15 24.27 32.15 24.27 28.51 24.53 28.9 26.64 32.15 27.46 32.15 27.46 27.37 26.74 27.37 26.74 31.02"/>
      <polygon class="cls-3" points="30.45 32.15 33.02 32.15 33.02 31.48 31.15 31.48 31.15 29.88 33.02 29.88 33.02 29.22 31.15 29.22 31.15 28.04 33.02 28.04 33.02 27.37 30.45 27.37 30.45 32.15"/>
      <path class="cls-3" d="M38.18,30.45c-.08-.16-.21-.34-.4-.53-.08-.08-.31-.27-.68-.57-.56-.46-.69-.6-.75-.67-.08-.1-.12-.21-.12-.32,0-.09.03-.22.17-.33.11-.09.25-.13.41-.13.28,0,.55.15.81.46l.52-.44c-.23-.24-.44-.41-.63-.51-.21-.11-.44-.16-.68-.16-.37,0-.67.11-.93.34-.25.23-.37.49-.37.8,0,.21.08.44.22.66.16.23.52.57,1.07,1.01.31.24.51.42.6.55.11.14.16.28.16.43,0,.17-.08.31-.22.44-.14.12-.32.18-.52.18-.35,0-.65-.21-.92-.62l-.6.35c.17.3.37.52.6.67.25.16.55.24.89.24.44,0,.79-.12,1.06-.37.27-.25.4-.55.4-.93,0-.19-.04-.37-.11-.53Z"/>
      <path class="cls-3" d="M43.59,30.98c0-.2-.04-.37-.11-.53-.08-.16-.21-.34-.4-.53-.08-.08-.31-.27-.68-.57-.56-.46-.69-.6-.75-.67-.08-.1-.12-.21-.12-.32,0-.09.03-.22.17-.33.11-.09.25-.13.41-.13.28,0,.55.15.81.46l.52-.44c-.23-.24-.44-.41-.63-.51-.21-.11-.44-.16-.68-.16-.37,0-.67.11-.93.34-.25.23-.37.49-.37.8,0,.21.08.44.22.66.16.23.52.57,1.07,1.01.31.24.51.42.6.55.11.14.16.28.16.43,0,.17-.08.31-.22.43-.14.12-.32.18-.52.18-.35,0-.65-.21-.92-.62l-.6.35c.17.3.37.52.6.67.25.16.55.24.89.24.44,0,.79-.12,1.06-.37.27-.25.4-.55.4-.93Z"/>
      <path class="cls-3" d="M53.59,32.15l-.71-.73.54-.47-.41-.46c-.25.21-.41.34-.48.38l-.1.07-.09-.08c-.12-.12-.4-.42-.83-.91l-.08-.1.09-.09c.44-.42.6-.64.67-.75.09-.16.13-.32.13-.49,0-.21-.1-.42-.29-.64-.19-.21-.47-.32-.84-.32s-.64.1-.83.32c-.2.22-.3.43-.3.65,0,.3.16.67.48,1.08l.08.11-.11.08c-.32.24-.55.48-.68.7-.13.22-.19.45-.19.69,0,.32.11.57.33.78.22.2.51.3.87.3.44,0,.93-.15,1.46-.45l.1-.05.08.08.24.3h.88ZM50.87,28.31c.09-.09.2-.13.33-.13.14,0,.25.04.33.12.09.08.13.19.13.31,0,.21-.14.43-.44.68l-.11.09-.09-.11c-.19-.24-.28-.45-.28-.65,0-.12.05-.22.13-.31ZM51.79,31.39c-.34.19-.62.29-.86.29-.18,0-.33-.05-.46-.16-.16-.14-.19-.28-.19-.37,0-.26.19-.53.58-.84l.11-.09.09.11c.33.4.58.68.76.85l.13.12-.16.09Z"/>
      <polygon class="cls-3" points="64.12 29.07 64.66 32.15 65.34 32.15 64.51 27.37 63.76 27.37 62.44 31.19 61.13 27.37 60.38 27.37 59.52 32.15 60.21 32.15 60.76 29.07 61.03 29.05 62.1 32.15 62.77 32.15 63.85 29.05 64.12 29.07"/>
      <path class="cls-3" d="M71.07,31.11l.41,1.04h.73l-1.9-4.79h-.81l-1.9,4.79h.73l.42-1.04h2.32ZM69.91,28.2l.9,2.24h-1.81l.91-2.24Z"/>
      <polygon class="cls-3" points="78.03 31.02 77.77 30.63 75.66 27.37 74.85 27.37 74.85 32.15 75.56 32.15 75.56 28.51 75.82 28.9 77.93 32.15 78.74 32.15 78.74 27.37 78.03 27.37 78.03 31.02"/>
      <path class="cls-3" d="M84.86,31.11l.41,1.04h.73l-1.9-4.79h-.81l-1.9,4.79h.73l.43-1.04h2.32ZM83.7,28.2l.9,2.24h-1.81l.91-2.24Z"/>
      <path class="cls-3" d="M93.2,31.13c.22-.37.34-.78.34-1.19v-.08h-2.35v.63h1.59l-.09.19c-.15.32-.36.56-.62.72-.26.15-.57.23-.94.23-.56,0-1.04-.18-1.43-.55-.39-.36-.58-.81-.58-1.34s.19-.94.56-1.3c.37-.35.84-.53,1.39-.53.58,0,1.1.21,1.55.62l.5-.48c-.28-.27-.56-.47-.84-.58-.37-.15-.78-.23-1.22-.23-.82,0-1.5.28-2.01.84-.43.47-.65,1.03-.65,1.66,0,.46.12.9.35,1.3s.55.71.95.92c.4.22.87.33,1.38.33.48,0,.9-.1,1.25-.3.35-.2.64-.48.87-.86Z"/>
      <polygon class="cls-3" points="96.25 32.15 98.82 32.15 98.82 31.48 96.96 31.48 96.96 29.88 98.82 29.88 98.82 29.22 96.96 29.22 96.96 28.04 98.82 28.04 98.82 27.37 96.25 27.37 96.25 32.15"/>
      <polygon class="cls-3" points="105.77 29.07 106.31 32.15 106.98 32.15 106.16 27.37 105.41 27.37 104.09 31.19 102.78 27.37 102.03 27.37 101.17 32.15 101.86 32.15 102.41 29.07 102.68 29.05 103.75 32.15 104.42 32.15 105.5 29.05 105.77 29.07"/>
      <polygon class="cls-3" points="109.6 32.15 112.17 32.15 112.17 31.48 110.31 31.48 110.31 29.88 112.17 29.88 112.17 29.22 110.31 29.22 110.31 28.04 112.17 28.04 112.17 27.37 109.6 27.37 109.6 32.15"/>
      <polygon class="cls-3" points="118.08 31.02 117.82 30.63 115.71 27.37 114.9 27.37 114.9 32.15 115.61 32.15 115.61 28.51 115.87 28.9 117.98 32.15 118.8 32.15 118.8 27.37 118.08 27.37 118.08 31.02"/>
      <polygon class="cls-3" points="121.27 28.05 122.2 28.05 122.2 32.15 122.92 32.15 122.92 28.05 123.88 28.05 123.88 27.37 121.27 27.37 121.27 28.05"/>
    </g>
  </g>
  <g>
    <path class="cls-2" d="M3.57,11.67v3.16c0,1.16,1.38,2.11,4.54,2.11h12.93c.87,0,1.06.49,1.06,1.46s-.19,1.46-1.06,1.46h-13.04c-5.33,0-8.01-1.68-8.01-5.03V5.29C0,1.91,2.68.26,8.01.26h4.03c.84,0,1.03.49,1.03,1.46s-.19,1.46-1.03,1.46h-3.92c-3.17,0-4.54.92-4.54,2.11v3.46h17.55c.87,0,1.06.49,1.06,1.46s-.19,1.46-1.06,1.46H3.57Z"/>
    <path class="cls-2" d="M30.22,3.18v15.53c0,1.03-.62,1.27-1.81,1.27s-1.79-.24-1.79-1.27V3.18h-8.14c-.87,0-1.05-.49-1.05-1.46s.19-1.46,1.05-1.46h19.91c.87,0,1.06.49,1.06,1.46s-.19,1.46-1.06,1.46h-8.17Z"/>
    <path class="cls-2" d="M44.63,18.71c0,1.03-.62,1.27-1.81,1.27s-1.79-.24-1.79-1.27V1.42c0-1.03.62-1.27,1.79-1.27s1.81.24,1.81,1.27v17.28Z"/>
    <path class="cls-2" d="M70,.15c-1.19,0-1.81.24-1.81,1.27v7.33h-17.42V1.42c0-1.03-.63-1.27-1.81-1.27s-1.78.24-1.78,1.27v17.28c0,1.03.62,1.28,1.78,1.28s1.81-.25,1.81-1.28v-7.03h17.42c.78.06,1.78.07,3.11.04.16,0,.33-.01.49-.02V1.42c0-1.03-.62-1.27-1.78-1.27ZM68.19,13.9v4.8c0,1.03.62,1.28,1.81,1.28s1.78-.25,1.78-1.28v-4.15c-.5,0-1.99-.04-3.6-.65ZM71,13.67c-1.28-.35-2.12-.66-2.81-.93v.3c.98.32,2.04.54,3.06.69-.08-.02-.16-.04-.25-.06Z"/>
    <path class="cls-2" d="M100.71,17.95l-7.14-10.18c-.46.42-1.5,1.34-2.52,1.94l1.49,2.18h-11.17l1.85-2.87,3.59-5.54,1.75,2.56c.83-.5,1.71-1.06,2.63-1.69l-2.26-3.23c-.43-.59-1.05-.95-2.11-.95s-1.73.36-2.14.95l-6.25,9.48-2.24,3.4-2.6,3.94c-.11.19-.19.38-.19.6,0,.84,1.06,1.46,1.95,1.46.46,0,.92-.16,1.16-.54l3-4.65h15.04l3.19,4.65c.27.38.7.54,1.19.54.91,0,1.97-.62,1.97-1.43,0-.19-.05-.4-.19-.62Z"/>
    <path class="cls-2" d="M127.08,14.84c0,3.35-2.65,5.03-8.01,5.03h-15.34c-.84,0-1.24-.43-1.24-1.27V1.5c0-.84.41-1.24,1.24-1.24h15.34c5.36,0,8.01,1.65,8.01,5.03v9.55ZM106.09,16.95h12.88c3.16,0,4.57-.95,4.57-2.11V5.29c0-1.19-1.41-2.11-4.57-2.11h-12.88v13.77Z"/>
    <path class="cls-1" d="M91.67,0l1.69,2.82c-.66.51-1.23.87-1.87,1.32-.11.07-.21.15-.31.21-.91.63-1.8,1.19-2.63,1.69-2.47,1.49-4.48,2.45-5.33,2.98l-1.85,2.87h4.87c1.03-.67,2.05-1.35,3-2,.45-.32.89-.62,1.3-.91.98-.69,1.85-1.33,2.56-1.86.12-.08.23-.17.34-.25,1.01-.74,1.61-1.21,1.61-1.21l2.26,2.82,2.91-8.47h-8.56ZM71.79,11.5c-2.11.16-3.6.19-3.6.19h-2.68c.43.34.94.64,1.5.9.37.17.77.32,1.17.45.98.32,2.04.54,3.06.69.23.03.46.06.68.09,2.32.27,4.24.19,4.24.19l2.24-3.4c-2.28.48-4.7.75-6.62.89Z"/>
  </g>
</svg>